<svg width="136" height="232" viewBox="0 0 136 232" fill="none" xmlns="http://www.w3.org/2000/svg">
<path d="M132.931 192.645H112.68C111.84 192.645 111.157 192.011 111.141 191.221L111.021 185.737C111.001 184.852 110.233 184.145 109.293 184.153L30.7601 184.818C23.4366 184.597 23.292 179.941 23.292 177.757V52.4007C23.1715 48.0596 16.3381 50.665 16.3381 42.2183C16.3381 38.0861 19.2707 34.083 23.292 34.083C20.4116 34.083 44.1214 34.083 54.5342 34.083C59.3428 35.6668 60.8332 38.8191 60.8372 42.3133C61.1466 49.3775 54.6788 47.4178 54.5342 52.207C53.9918 70.1183 54.5342 149.534 54.5342 149.534C55.659 154.946 58.5233 157.472 63.7899 158.672C83.1731 159.06 101.524 158.817 120.485 158.946C128.685 159.003 135.321 165.254 135.389 173.006L135.542 190.154C135.554 191.525 134.381 192.641 132.935 192.641L132.931 192.645Z" fill="#003F5B"/>
<path d="M79.1599 12.8828C79.3889 17.9683 74.9257 22.1271 69.5547 21.8347C63.3922 21.4967 55.0243 20.5434 50.0509 20.3079C49.0145 20.2585 48.1508 21.0409 48.1508 22.0208V28.709C48.1508 29.2066 47.7249 29.6092 47.1987 29.6092H30.6195C30.1977 29.6092 29.8562 29.2863 29.8562 28.8875V25.2187L29.9205 22.7994C29.9607 21.3599 28.6792 20.2053 27.1606 20.3117L9.29592 21.5916C4.2382 21.8309 0 18.0215 0 13.236C0.357535 8.27966 5.10593 4.66018 10.3042 5.378L28.3618 8.16572C29.0126 8.26447 29.6071 7.79731 29.6152 7.17444L29.6875 2.5295C29.7076 1.18502 30.8686 0.106387 32.2907 0.106387L46.2426 4.32012e-05C47.5361 -0.00755278 48.5846 0.98752 48.5686 2.21047L48.5043 6.63133C48.4963 7.29978 49.1229 7.8201 49.8219 7.71756L68.6106 4.78171C73.9857 3.94236 78.9269 7.73655 79.1599 12.8828Z" fill="#003F5B"/>
<path d="M136 221.066C136 227.104 130.524 232 123.767 232C117.01 232 111.535 227.104 111.535 221.066C111.535 215.027 123.293 197.127 123.293 197.127C123.293 197.127 135.996 215.027 135.996 221.066H136Z" fill="#003F5B"/>
</svg>
