<?xml version="1.0" encoding="UTF-8"?><svg id="Lag_2" xmlns="http://www.w3.org/2000/svg" width="120.29" height="133" viewBox="0 0 120.29 133"><defs><style>.cls-1{fill:#003f5b;}.cls-2{fill:none;stroke:#003f5b;stroke-miterlimit:10;stroke-width:4px;}</style></defs><path class="cls-1" d="M106.71,86.03c-.17-.91-1.1-1.4-1.93-1.47-1.77-.14-3.29-1.07-5.02-1.32-1.28-2.55-.98-5.26,1.11-7.49.75-.81.76-2.02,0-2.83-1.36-1.44-2.65-2.96-3.88-4.53.56-.03,1.1-.33,1.43-1.01,1.56-3.21,2.38-6.43,2.38-10.01,0-3.34-.61-6.71-1.61-9.89-2.01-6.33-5.55-12.33-10.29-17-10.11-9.93-26.56-12.73-39.92-8.99-12.72,3.56-24.68,13.99-27.65,27.19-1.57,6.96-.62,13.9,2.52,20.27,1.43,2.91,3.23,5.62,5.05,8.3,1.65,2.42,3.59,4.8,4.85,7.45,1.94,4.07,2.63,9.47,3.69,14.06.57,2.45,1.18,4.92,2.11,7.27.76,1.92,1.69,3.93,3.28,5.32.5.44,1.03.79,1.61,1.07-.36.23-.65.58-.81,1.1-1.31,4.45-2.07,10.17,1.1,14,2.03,2.45,5.19,3.85,8.21,4.62,6.65,1.67,15.04,1.1,20.56-3.33,2.91-2.34,4.43-5.92,3.94-9.65-.02-.12-.04-.23-.07-.35,0-.19-.03-.38-.07-.57,1.41.05,2.81.08,4.22.09,1.37,0,2.18-1.28,1.93-2.53-.19-.95.03-1.97.14-2.91.06-.56.09-1.1.07-1.64,1.24-.72,2.61-1.2,4.08-1.02,1.85.22,3.25,1.45,4.39,2.84.58.71,1.68.69,2.42.31,2.57-1.3,5.01-3.45,6.64-5.82.46-.67.33-1.9-.31-2.42-1.36-1.12-2.18-2.43-2.04-4.24.11-1.43.71-2.78,1.42-4.03,1.36-.24,2.67-.78,4.05-.73.9.03,1.67-.65,1.93-1.47.84-2.67.98-5.89.47-8.63ZM43.97,106.21c-.9-1.75-1.5-3.82-2.03-5.83-1.23-4.68-1.97-9.49-3.4-14.12-1.59-5.12-5.06-9.19-7.95-13.63-3.24-4.99-5.93-10.33-6.07-16.4-.3-12.91,9-23.72,20.24-28.95,11.77-5.48,26.78-4.24,37.56,2.95,4.86,3.25,8.53,8.24,11.06,13.44,2.51,5.15,4.14,11.33,3.16,17.08-.28,1.63-.86,3.12-1.58,4.6-.2.41-.25.8-.2,1.17-.58-.11-1.18.02-1.63.56-1.32,1.55-2.9,2.59-5,2.42-1.63-.13-3.16-.85-4.55-1.71,0-.42-.03-.83-.08-1.27-.1-.81-.32-1.73-.19-2.55.18-1.06-.26-2.16-1.4-2.46-2.96-.79-6.39-.87-9.37-.13-.79.2-1.54,1.08-1.47,1.93.22,2.51-.94,4.55-3.26,5.46-2.26.88-4.96.54-6.83-1.12-.68-.61-1.61-.76-2.42-.31-2.42,1.35-4.76,3.62-6.21,5.98-.49.79-.27,1.77.31,2.42,3.59,4.04-.8,8.68-5.03,9.43-.65.12-1.25.77-1.4,1.4-1.05,4.46,1.8,7.58,4.88,10.35.66.59,1.32,1.18,1.92,1.83.49.53.76.78,1.1,1.55-.04-.08.09.3.11.37.02.11.04.16.05.18,0,.02,0,.02,0,.04,0,.13,0,.27,0,.4-.01.08-.04.27-.06.33-.26.82-.83,1.68-1.56,2.48-.95,1.04-.65,2.35.4,3.14.59.44,1.11.94,1.61,1.47-2.72,0-5.43.05-8.15.25-.03-.01-.06-.03-.09-.04-.08-.02-.2-.07-.25-.09-.11-.06-.22-.12-.33-.18-.05-.03-.15-.1-.21-.14-.14-.12-.28-.25-.4-.38-.51-.52-.84-1.07-1.29-1.94ZM73.13,122.91c-.05.14-.05.16-.27.57-.13.25-.29.49-.44.73-.2.3-.04.1-.33.43-.26.29-.53.57-.81.83-.78.72-1.91,1.4-3.14,1.94-.28.13-1.14.43-1.69.6-.73.22-1.47.4-2.22.55-2.69.52-6.1.54-8.78.04-1.33-.25-2.89-.67-3.99-1.13-.38-.16-1.1-.52-1.59-.81-.59-.35-1.04-.67-1.3-.92-.27-.25-.52-.5-.78-.77-.32-.34-.09-.05-.34-.43-.46-.72-.72-1.45-.84-2.31,0-.03,0-.07,0-.1.23.11.49.18.78.19,4.33.23,8.66.28,13,.27,4.29-.01,8.61-.3,12.9-.16-.05.15-.1.31-.16.48ZM73.54,118.45s0,0,0,0c-.08-.01-.16-.03-.25-.03-4.29-.14-8.61.15-12.9.16-4.33.01-8.67-.05-13-.27-.28-.01-.52.03-.74.1.17-1.31.47-2.61.84-3.83.2-.66.05-1.22-.27-1.63,3.66-.24,7.33-.25,11-.17.54.24,1.2.28,1.73.03.99-.04,1.62-.79,1.78-1.63.9-.69,1.93-1.07,3.21-1.03,1.51.04,2.95.6,4.3,1.29.14,1.52.7,3,.53,4.54-.12,1.12,1.02,1.93,2,2,.62.04,1.25.06,1.87.1-.04.13-.08.26-.1.39ZM98.04,93.24c-.78.46-1.24,1.55-1.64,2.34-.42.84-.8,1.73-1.08,2.63-.93,3.04-.44,6.12,1.49,8.48-.84.92-1.85,1.75-2.89,2.43-1.6-1.54-3.58-2.6-5.84-2.86-2.71-.31-5.36.68-7.53,2.24-.77.56-1.11,1.32-.92,2.26.19.95-.03,1.96-.13,2.91-.02.21-.04.41-.05.61-1.92-.03-3.85-.1-5.77-.21-.2-1.28-.59-2.54-.45-3.84.07-.67-.43-1.41-.99-1.73-4.12-2.34-9.15-3.38-12.92-.54-.89-.8-1.69-1.73-2.53-2.61.98-1.41,1.66-3.01,1.48-4.78-.21-2.02-1.41-3.66-2.81-5.06-1.32-1.33-2.83-2.47-4.07-3.88-.8-.91-1.31-1.86-1.38-2.9,2.97-.89,5.64-2.96,7.02-5.75,1.44-2.93,1.15-6.04-.49-8.65.83-1.06,1.87-2.05,2.97-2.83,2.83,1.82,6.42,2.29,9.62,1.05,3.32-1.29,5.62-4.12,5.95-7.56,1.4-.18,2.88-.14,4.28.08.01.23.03.46.06.7.1.81.33,1.74.19,2.55-.15.94.12,1.72.92,2.26,2.35,1.59,5.06,2.87,7.94,2.94,2.21.05,4.23-.74,5.9-2.06.8,1.01,1.63,1.99,2.49,2.94-2.41,3.57-2.52,8-.02,11.78.38.57,1.01,1.04,1.73.99,1.5-.1,2.94.55,4.41,1,.11,1.31.02,2.75-.25,4.08-.6.1-1.19.25-1.78.41-.89.24-2.12.12-2.89.58Z"/><path class="cls-1" d="M15.32,71.19c-.32-1-1.39-1.73-2.46-1.4-3.72,1.17-7.43,2.4-11.24,3.21-1.02.22-1.72,1.47-1.4,2.46.35,1.08,1.36,1.63,2.46,1.4,3.82-.81,7.53-2.04,11.24-3.21,1-.31,1.74-1.41,1.4-2.46Z"/><path class="cls-1" d="M13.12,42.32c-3.61-.79-7.17-1.82-10.6-3.21-.97-.39-2.24.43-2.46,1.4-.26,1.16.36,2.04,1.4,2.46,3.43,1.39,6.99,2.42,10.6,3.21,1.02.22,2.21-.31,2.46-1.4.23-1.01-.3-2.22-1.4-2.46Z"/><path class="cls-1" d="M32.48,19.54c-2.47-2.74-4.65-5.73-7.07-8.51-.69-.79-2.13-.76-2.83,0-.78.84-.73,1.98,0,2.83,2.42,2.79,4.6,5.77,7.07,8.51.7.78,2.12.77,2.83,0,.76-.83.75-2,0-2.83Z"/><path class="cls-1" d="M60.46,0c-1.15.05-1.92.88-2,2-.26,3.48-.48,6.96-.64,10.44-.05,1.05.95,2.05,2,2,1.12-.05,1.95-.88,2-2,.16-3.48.38-6.96.64-10.44.08-1.05-.98-2.05-2-2Z"/><path class="cls-1" d="M97.94,10.56c-1.05-.55-2.07-.18-2.74.72-1.14,1.53-2.25,3.08-3.37,4.62-.56.77-1.12,1.53-1.69,2.3-.28.38-.57.76-.86,1.14-.06.08-.09.12-.1.13-.04.06-.09.11-.13.17-.15.19-.29.37-.44.56-.34.43-.59.84-.59,1.41,0,.49.22,1.08.59,1.41.72.66,2.14.88,2.83,0,2.5-3.17,4.82-6.48,7.22-9.72.63-.84.17-2.27-.72-2.74Z"/><path class="cls-1" d="M118.29,38.88c-3.89.4-7.67,1.34-11.29,2.8-.97.39-1.76,1.35-1.4,2.46.3.94,1.42,1.82,2.46,1.4,1.69-.68,3.42-1.26,5.19-1.72.87-.23,1.75-.42,2.63-.59.46-.09.91-.16,1.37-.23.06,0,.09-.01.13-.02.03,0,.06,0,.12-.01.26-.03.52-.06.78-.09,1.04-.11,2.05-.84,2-2-.04-.99-.89-2.11-2-2Z"/><path class="cls-1" d="M118.82,73.16c-3.71-.83-7.33-1.97-10.92-3.21-.99-.34-2.23.39-2.46,1.4-.25,1.11.34,2.09,1.4,2.46,3.59,1.24,7.21,2.39,10.92,3.21,1.02.23,2.21-.31,2.46-1.4.23-1.01-.3-2.22-1.4-2.46Z"/><ellipse class="cls-2" cx="76.25" cy="90.41" rx="11.58" ry="12.4" transform="translate(-32.63 136.6) rotate(-72.85)"/></svg>