<?xml version="1.0" encoding="UTF-8"?><svg id="Lag_2" xmlns="http://www.w3.org/2000/svg" width="128" height="115" viewBox="0 0 128 115"><defs><style>.cls-1{isolation:isolate;}.cls-2{fill:#003f5b;}.cls-3{fill:none;stroke:#003f5b;stroke-miterlimit:10;stroke-width:4px;}</style></defs><path class="cls-3" d="M64,92.54l-28.32,17.04s-13.08-4.29-14.69-4.84l-9.9-9.38,1.75-3.48-6.43-11.5,6.54-41.88,26.58-29.09,22.31,22.86,1.36,25.68,5.44,10.39-4.64,24.21h0Z"/><path class="cls-3" d="M12.95,38.5l24.58,49.2-14.81-8.69s-8.54,11.49-9.87,12.87"/><path class="cls-3" d="M22.61,103.25l16.25-15.55,1.87.97s1.79,15.87,2.09,16.62"/><g class="cls-1"><g class="cls-1"><path class="cls-2" d="M89.59,38.33c1.7,1.52,2.65,3.25,2.83,5.19h-3.25c-.36-1.47-1.08-2.64-2.16-3.5-1.08-.86-2.6-1.29-4.55-1.29-2.38,0-4.3.79-5.77,2.37-1.47,1.58-2.2,4.01-2.2,7.27,0,2.68.66,4.85,1.98,6.51,1.32,1.66,3.3,2.5,5.92,2.5,2.42,0,4.25-.88,5.52-2.63.67-.92,1.17-2.13,1.5-3.64h3.25c-.29,2.4-1.24,4.42-2.85,6.05-1.93,1.96-4.54,2.94-7.82,2.94-2.83,0-5.2-.8-7.12-2.41-2.53-2.12-3.79-5.41-3.79-9.84,0-3.37.95-6.13,2.85-8.29,2.05-2.34,4.89-3.51,8.5-3.51,3.08,0,5.47.76,7.17,2.28Z"/><path class="cls-2" d="M106.19,49.43c.69-.08,1.16-.35,1.39-.81.13-.25.2-.61.2-1.08,0-.96-.37-1.65-1.1-2.08s-1.78-.65-3.14-.65c-1.57,0-2.69.4-3.35,1.19-.37.44-.61,1.09-.72,1.95h-2.82c.06-2.06.77-3.49,2.15-4.29s2.98-1.21,4.8-1.21c2.11,0,3.82.37,5.14,1.12,1.31.75,1.96,1.91,1.96,3.48v9.59c0,.29.06.52.19.7.13.18.4.26.81.26.13,0,.28,0,.45-.02.17-.02.35-.04.54-.07v2.07c-.47.12-.83.2-1.07.23-.25.03-.58.05-1.01.05-1.04,0-1.79-.34-2.26-1.03-.25-.36-.42-.88-.52-1.54-.61.75-1.5,1.39-2.65,1.94-1.15.55-2.42.82-3.8.82-1.67,0-3.03-.47-4.08-1.4-1.06-.94-1.58-2.11-1.58-3.52,0-1.54.52-2.74,1.56-3.59,1.04-.85,2.4-1.37,4.09-1.57l4.81-.56ZM99.83,56.98c.64.47,1.39.7,2.26.7,1.06,0,2.09-.23,3.08-.68,1.68-.75,2.51-1.99,2.51-3.71v-2.25c-.37.22-.84.4-1.42.55-.58.15-1.15.25-1.71.31l-1.82.22c-1.09.13-1.91.35-2.46.64-.93.49-1.4,1.26-1.4,2.33,0,.81.32,1.44.96,1.91Z"/></g><g class="cls-1"><path class="cls-2" d="M89.59,76.53c1.7,1.52,2.65,3.25,2.83,5.19h-3.25c-.36-1.47-1.08-2.64-2.16-3.5-1.08-.86-2.6-1.29-4.55-1.29-2.38,0-4.3.79-5.77,2.37-1.47,1.58-2.2,4-2.2,7.27,0,2.67.66,4.84,1.98,6.51,1.32,1.67,3.3,2.5,5.92,2.5,2.42,0,4.25-.88,5.52-2.62.67-.92,1.17-2.13,1.5-3.64h3.25c-.29,2.4-1.24,4.42-2.85,6.04-1.93,1.96-4.54,2.94-7.82,2.94-2.83,0-5.2-.8-7.12-2.41-2.53-2.12-3.79-5.41-3.79-9.84,0-3.37.95-6.13,2.85-8.29,2.05-2.34,4.89-3.51,8.5-3.51,3.08,0,5.47.76,7.17,2.28Z"/><path class="cls-2" d="M110.38,79c1.07,1.83,1.61,4.35,1.61,7.54,0,3.03-.49,5.53-1.46,7.51-1.41,2.84-3.71,4.26-6.91,4.26-2.88,0-5.03-1.16-6.44-3.48-1.17-1.94-1.76-4.54-1.76-7.8,0-2.53.35-4.7,1.06-6.51,1.32-3.38,3.7-5.07,7.16-5.07,3.11,0,5.35,1.19,6.74,3.56ZM107.34,93.82c.93-1.28,1.39-3.68,1.39-7.18,0-2.53-.34-4.61-1.01-6.24s-1.98-2.45-3.91-2.45c-1.78,0-3.08.78-3.9,2.32-.82,1.55-1.23,3.83-1.23,6.85,0,2.27.26,4.09.79,5.47.81,2.1,2.18,3.15,4.13,3.15,1.57,0,2.81-.64,3.74-1.93Z"/></g></g><g class="cls-1"><g class="cls-1"><path class="cls-2" d="M115.22,97.15c-.72-.81-1.08-1.8-1.08-2.96h1.77c.08.81.24,1.4.49,1.76.44.66,1.23.99,2.38.99.89,0,1.61-.22,2.15-.66s.81-1.01.81-1.71c0-.86-.28-1.46-.85-1.81-.57-.34-1.36-.51-2.37-.51-.11,0-.23,0-.34,0-.12,0-.23,0-.35.01v-1.39c.18.02.32.03.44.03.12,0,.25,0,.39,0,.63,0,1.16-.09,1.56-.28.72-.33,1.07-.91,1.07-1.75,0-.62-.24-1.1-.72-1.44-.48-.34-1.03-.51-1.67-.51-1.13,0-1.91.35-2.34,1.05-.24.38-.37.93-.41,1.64h-1.68c0-.93.2-1.72.6-2.38.69-1.16,1.91-1.75,3.65-1.75,1.38,0,2.44.28,3.19.85.75.57,1.13,1.39,1.13,2.47,0,.77-.22,1.39-.67,1.87-.28.3-.63.53-1.07.7.71.18,1.26.53,1.66,1.04.4.52.6,1.15.6,1.89,0,1.19-.42,2.17-1.27,2.92s-2.05,1.13-3.61,1.13-2.75-.41-3.47-1.22Z"/></g></g></svg>