<?xml version="1.0" encoding="UTF-8"?><svg id="Lag_2" xmlns="http://www.w3.org/2000/svg" width="109" height="140.5" viewBox="0 0 109 140.5"><defs><style>.cls-1{fill:#003f5b;}.cls-2{fill:none;stroke:#003f5b;stroke-miterlimit:10;stroke-width:4px;}</style></defs><path class="cls-2" d="M74,133.5s2,4-29,4h-25.87s-16.13,0-16.13-14V51.82s-1-5.32,7-14.32c0,0,0,0,0,0,.08-.08,6.02-5.95,16.85-6,.08,0,.15-.06.15-.14,0-1.04,0-7.49,0-8.67,0-.1-.08-.16-.18-.14-.99.25-5.82,1.03-5.82-7.05,0,0,0,0,0,0,0-.05-.98-11,7-11h26.49s.01,0,.02,0c.27-.05,10.49-1.85,10.49,9,0,0,1.98,9.89-6.85,10-.08,0-.15.06-.15.14v8.7c0,.09.07.15.15.15,1.75-.14,17.96-.85,19.85,19.01"/><circle class="cls-2" cx="69" cy="93.5" r="37"/><line class="cls-2" x1="5" y1="53.5" x2="46.39" y2="53.5"/><line class="cls-2" x1="5" y1="115.57" x2="27.33" y2="115.57"/><line class="cls-2" x1="27" y1="22.5" x2="60.08" y2="22.5"/><line class="cls-2" x1="32" y1="5.68" x2="32" y2="21.47"/><line class="cls-2" x1="43" y1="5.68" x2="43" y2="21.47"/><line class="cls-2" x1="53" y1="5.68" x2="53" y2="21.47"/><line class="cls-2" x1="94.41" y1="67.99" x2="41.94" y2="118.73"/><path class="cls-1" d="M86.72,94.95s.05,0,.07,0c0,0-.02,0-.02,0-.02,0-.03,0-.05,0Z"/><path class="cls-1" d="M96.45,97.96c.3.23-.17-.15-.18-.16-.15-.12-.29-.25-.43-.38-.24-.22-.48-.44-.71-.66-.52-.5-1.02-1.02-1.52-1.54-.93-.96-1.85-1.94-2.91-2.76-.8-.62-1.7-1.12-2.7-1.34-1.14-.25-2.3-.25-3.46-.25-.21,0-.41.04-.61.11-.08-.45-.17-.9-.3-1.34-.65-2.28-1.99-4.05-3.84-5.48-.05-.04-.07-.11-.04-.17.34-.67.3-1.52-.1-2.15.14-.27.22-.57.24-.88.14-3.04-1.36-5.46-3.62-7.03.12-.16.21-.34.28-.54.34-.78.75-1.52,1.24-2.2,0,0,0-.01.01-.02.28-.33.58-.64.91-.92.23-.16.48-.31.73-.43.28-.1.56-.18.85-.23.47-.08.97-.53,1.2-.92.25-.43.36-1.06.2-1.54-.16-.48-.46-.95-.92-1.2-.16-.07-.32-.13-.48-.2-.35-.1-.71-.1-1.06,0-1.56.26-3.01,1.19-4.05,2.35-1.1,1.22-1.85,2.63-2.45,4.16,0,.01,0,.03,0,.05-.14-.04-.28-.08-.42-.11-2.02-.47-4.29-.58-6.39-.12.03-.38-.05-.78-.26-1.15-1.36-2.34-3.34-4.37-5.83-5.49-.51-.23-.99-.35-1.54-.2-.46.13-.97.49-1.2.92-.25.46-.37,1.03-.2,1.54.15.47.45.99.92,1.2.66.3,1.28.67,1.87,1.1.61.49,1.15,1.05,1.65,1.65.31.42.61.85.87,1.31.1.18.25.34.41.48-.68.45-1.3,1-1.83,1.67-1.6,2.01-2.15,4.53-2.09,7.06,0,.33.08.62.2.86-.29.19-.56.39-.84.6-1.41-.93-2.98-1.61-4.26-2.71-.44-.38-.42-.41-.67-.74-.03-.04-.05-.07-.07-.09,0-.02,0-.05-.02-.09-.06-.2-.12-.4-.16-.61-.19-.91-.25-1.84-.47-2.75-.46-1.93-1.41-3.67-2.74-5.14-1.3-1.43-2.94-2.54-4.5-3.67-.88-.63-2.23-.15-2.74.72-.59,1.01-.16,2.1.72,2.74,1.45,1.05,2.65,1.9,3.89,3.27.18.2.3.36.58.8.11.17.21.35.3.53.02.04.15.32.18.36.36.84.55,1.77.69,2.67.29,1.88.68,3.5,2.18,4.83,1.46,1.29,3.34,1.99,4.87,3.14.05.04.07.1.06.16-.25,1.11-.54,2.22-.83,3.32-.02.07-.09.12-.16.11-.95-.12-1.91-.27-2.87-.22-1.39.07-2.69.52-3.85,1.29-2.8,1.87-5.08,4.5-7.12,7.16-.64.83-.16,2.28.72,2.74,1.06.56,2.05.17,2.74-.72-.14.18.12-.15.16-.2.12-.15.23-.29.35-.44.22-.27.44-.53.66-.79.48-.56.98-1.11,1.5-1.63.95-.98,2.04-2.01,3.01-2.66.23-.16.48-.3.73-.43.06-.03.24-.11.23-.11.04-.01.08-.03.11-.04.19-.06.38-.1.57-.14-.18.05.21-.02.4-.03.58,0,1.16.05,1.74.12.08.01.14.09.13.17-.38,1.98-.62,4.02-.25,5.97.13.68.41,1.33.83,1.86-.27.03-.54.07-.81.15-.37.11-.73.27-1.08.43-.57.26-1.07.64-1.55,1.03,0,0,0,0,0,0-.19.13-.37.26-.56.42-.39.33-.7.73-1,1.13-.22.29-.4.6-.55.93-.16.35-.26.7-.26,1.07-.06.17-.12.34-.17.52-.13.51-.06,1.09.2,1.54.24.41.72.81,1.2.92.51.12,1.09.09,1.54-.2.44-.28.78-.68.92-1.2.06-.23.14-.46.23-.68.09-.18.19-.35.3-.52.14-.16.3-.32.47-.46.14-.1.28-.2.43-.29.46-.01.99-.26,1.3-.58.07-.07.13-.15.19-.24.18-.09.35-.18.52-.28.12-.07.23-.15.33-.25.01.08.01.15.03.23,1.84,7.18,10.32,12.2,17.44,9.49,4.49-1.71,7.13-5.36,8.62-9.58.12.05.24.1.38.12.31.06.6.15.91.23.13.07.26.13.38.21,0,0,.02.01.03.02.06.05.18.15.21.18.06.06.12.13.18.19.01.02.03.04.04.06.13.2.24.41.35.62,0,0,0,0,0,0,.04.13.09.25.13.38.16.5.27,1.01.36,1.53.05.27.09.55.13.82,0,.02,0,.04,0,.06.01.11.03.22.04.33.09.66.17,1.32.28,1.97.18,1.02.47,2.11,1.07,2.97.97,1.38,2.4,2.06,4.08,2.09,1.05.02,2.05-.93,2-2-.05-1.1-.88-1.98-2-2-.08,0-.2-.02-.3-.02-.07-.02-.15-.05-.24-.07-.03-.02-.07-.04-.11-.07-.01-.02-.06-.08-.11-.13,0,0,0,0,0,0-.05-.09-.1-.17-.14-.26-.06-.2-.14-.39-.19-.59-.13-.48-.21-.96-.28-1.45-.02-.1-.03-.21-.04-.31,0,0,0,0,0-.01-.05-.42-.11-.83-.17-1.25-.07-.53-.15-1.06-.26-1.58-.23-1.11-.6-2.26-1.27-3.18-.98-1.36-2.37-2.28-4.03-2.57-.14-.02-.27-.04-.41-.04.38-1.92.59-3.88.67-5.75.02-.52.04-1.04.05-1.56.11.02.23.04.35.04.56,0,1.13,0,1.69.03.15,0,.33.04.5.05-.13-.02-.25-.06,0,0,.02,0,.04,0,.06.01.03,0,.05,0,.08,0-.02,0-.03,0-.05,0,.06.01.13.02.19.04.19.04.37.1.55.16.07.04.15.08.16.09.17.09.33.19.48.3.05.03.1.07.15.11.02.02.03.03.04.03.03.03.05.05.06.06.96.81,1.81,1.75,2.68,2.66,1.05,1.08,2.12,2.09,3.32,3.01.83.64,2.28.15,2.74-.72.56-1.06.17-2.05-.72-2.74ZM62.74,80.38s.1-.51.11-.57c.05-.2.1-.39.16-.59.21-.7.59-1.38,1.07-1.88.53-.55,1.22-.96,1.88-1.17,1.05-.35,1.74-.42,2.83-.41.46,0,.92.03,1.38.08.05,0,.09.01.12.01.11.02.23.04.34.06.27.05.53.1.79.17,1.11.27,1.56.44,2.46.99.65.4,1.17.9,1.54,1.53.08.14.15.28.22.43,0,.03.14.47.16.53.03.12.05.23.07.35,0,.04,0,.08.01.14.02.3.02.6,0,.9,0,.03,0,.06,0,.09-3.18.09-6.36.31-9.54.27-1.22-.02-2.46,0-3.67.21,0-.38.02-.76.07-1.14ZM80.16,95.52c-.09,3.05-.42,6.1-1.41,9-.94,2.74-2.6,5.23-5.16,6.68-2.35,1.34-5.2,1.29-7.65.23-2.78-1.2-4.97-3.54-5.72-6.48-.42-1.64-2.24-1.74-3.25-.9-.01-.09-.03-.19-.06-.27-.03-.08-.07-.15-.1-.23.91.04,1.79-.54,2.04-1.46.25-.92-.23-1.94-1.08-2.34-.02-.12-.03-.25-.05-.35,0,.12,0,.22-.02-.11,0-.02-.01-.03-.02-.03,0,0,.01,0,.02.02,0-.14-.02-.28-.02-.41-.02-.69.04-1.38.12-2.06,0-.08.02-.16.03-.24.03-.17.05-.34.08-.51.06-.39.13-.78.21-1.17.48-2.51,1.27-4.94,1.76-7.44.02-.08,0-.16.01-.24.11-.07.22-.15.33-.24,2.06-1.81,4.4-1.67,6.99-1.64,3.1.04,6.19-.21,9.29-.29.1,0,.16.09.14.19-.22.85.2,1.69.92,2.23,2.56,1.91,2.69,5.16,2.61,8.08Z"/><path class="cls-1" d="M57.71,99.29s.01.06.02.11c0-.05-.01-.09-.02-.12h0s0,0,0,.01Z"/><path class="cls-1" d="M76.29,132.54c-.13-.38-.3-.73-.6-1-.28-.26-.56-.44-.94-.54-.2-.06-.41-.08-.62-.08-.28-.01-.53.05-.77.17-.25.08-.46.22-.64.41-.17.16-.29.35-.37.56-.27.24-.46.55-.56.9-.03.03-.06.05-.09.08-.2.18-.33.4-.41.64-.13.24-.18.5-.17.77.02.18.05.35.07.53.1.34.27.63.51.88l.25.19c.29.22.82.4,1.18.39.58-.01,1.11-.15,1.62-.43.23-.13.44-.3.64-.48.19-.17.35-.41.49-.61.05-.07.1-.15.14-.23.09-.19.17-.38.24-.58.01-.04.03-.08.04-.12.1-.46.15-.98,0-1.44Z"/><path class="cls-1" d="M27.21,113.55c-2.57,0-2.58,4,0,4s2.58-4,0-4Z"/><path class="cls-1" d="M46.35,51.48c-2.57,0-2.58,4,0,4s2.58-4,0-4Z"/><path class="cls-1" d="M77.98,49.23c-2.57,0-2.58,4,0,4s2.58-4,0-4Z"/><path class="cls-1" d="M63.8,21.57c-.07-.16-.13-.32-.2-.48-.18-.3-.42-.54-.72-.72-.16-.07-.32-.13-.48-.2-.35-.1-.71-.1-1.06,0-.6.19-1.22.34-1.85.43-.26.06-.49.18-.68.36-.22.14-.39.33-.52.56-.15.23-.23.48-.24.74-.06.27-.05.53.04.8.07.16.13.32.2.48.18.3.42.54.72.72.16.07.32.13.48.2.35.1.71.1,1.06,0,.63-.1,1.24-.24,1.85-.43.26-.06.49-.18.68-.36.22-.14.39-.33.52-.56.15-.23.23-.48.24-.74.06-.27.05-.53-.04-.8Z"/></svg>