<?xml version="1.0" encoding="UTF-8"?><svg id="Lag_2" xmlns="http://www.w3.org/2000/svg" width="125.5" height="126" viewBox="0 0 125.5 126"><defs><style>.cls-1{isolation:isolate;}.cls-2{fill:#003f5b;}.cls-3{fill:none;stroke:#003f5b;stroke-miterlimit:10;stroke-width:4px;}</style></defs><path class="cls-3" d="M64.65,78.57c-7.28,3.79-14.56,7.59-21.84,11.38-12.26-6.39-24.53-12.77-36.79-19.16V26.08L42.81,6.53l36.79,19.56v28.22"/><g class="cls-1"><g class="cls-1"><path class="cls-2" d="M12.26,37.94h8.41c1.66,0,3.01.47,4.03,1.4s1.53,2.25,1.53,3.94c0,1.46-.46,2.72-1.37,3.8-.91,1.08-2.31,1.62-4.19,1.62h-5.87v7.88h-2.55v-18.65ZM22.14,40.5c-.56-.26-1.33-.39-2.3-.39h-5.03v6.46h5.03c1.13,0,2.06-.24,2.76-.72s1.06-1.33,1.06-2.55c0-1.37-.51-2.3-1.52-2.79Z"/></g><g class="cls-1"><path class="cls-2" d="M28.7,37.94h13.04v2.29h-10.49v5.66h9.23v2.22h-9.23v8.48h-2.55v-18.65Z"/></g><g class="cls-1"><path class="cls-2" d="M47.62,37.94h2.88l6.82,18.65h-2.79l-1.91-5.59h-7.44l-2.03,5.59h-2.61l7.08-18.65ZM51.81,48.95l-2.85-8.24-3.03,8.24h5.89Z"/><path class="cls-2" d="M61.3,50.57c.06,1.06.3,1.92.73,2.58.81,1.24,2.25,1.85,4.3,1.85.92,0,1.76-.14,2.51-.41,1.46-.53,2.19-1.46,2.19-2.82,0-1.02-.31-1.74-.93-2.17-.63-.42-1.61-.79-2.95-1.1l-2.47-.57c-1.61-.37-2.75-.78-3.42-1.23-1.16-.78-1.74-1.94-1.74-3.49,0-1.68.57-3.05,1.71-4.12,1.14-1.08,2.75-1.61,4.83-1.61,1.92,0,3.55.47,4.89,1.42s2.01,2.45,2.01,4.53h-2.39c-.12-1-.38-1.76-.79-2.3-.74-.97-2.01-1.46-3.79-1.46-1.44,0-2.47.31-3.1.94-.63.63-.94,1.35-.94,2.18,0,.91.37,1.58,1.12,2.01.49.27,1.59.61,3.31,1.02l2.55.6c1.23.29,2.18.68,2.85,1.18,1.16.87,1.74,2.14,1.74,3.8,0,2.06-.74,3.54-2.22,4.43-1.48.89-3.19,1.33-5.15,1.33-2.28,0-4.06-.59-5.35-1.78-1.29-1.18-1.92-2.77-1.9-4.79h2.39Z"/></g></g><path class="cls-3" d="M119.5,95.03c0,14.9-12.17,26.97-27.19,26.97s-27.19-12.08-27.19-26.97,27.19-50.02,27.19-50.02c0,0,27.19,35.12,27.19,50.02h0Z"/><line class="cls-3" x1="75.24" y1="70.06" x2="113.36" y2="112.1"/></svg>