<?xml version="1.0" encoding="UTF-8"?><svg id="Lag_2" xmlns="http://www.w3.org/2000/svg" width="135" height="142" viewBox="0 0 135 142"><defs><style>.cls-1{fill:none;stroke:#003f5b;stroke-miterlimit:10;stroke-width:4px;}</style></defs><path class="cls-1" d="M67.27,124l-42.22-45.76c-17.82-17.25-15.87-44.92-3.28-55.66,11.14-9.5,32.45-7.3,45.5,9.9,12.41-17.87,35.68-18.84,47.56-6.13,11.98,12.82,11.26,38.31-5.35,51.89-14.07,15.25-28.14,30.51-42.22,45.76Z"/><path class="cls-1" d="M71.3,92.71h-7.72c-.65,0-1.18-.56-1.19-1.27-.06-3.67-.24-14.03-.24-14.16,0-.07-12.39-.02-15.22,0-.31,0-.57-.27-.57-.61v-9.28c0-.69.52-1.25,1.16-1.26l14.98-.07c0-4.95-.08-10.65-.09-15.68,0-.46.34-.82.76-.82h7.52c.75,0,1.35.65,1.35,1.46,0,4.83-.03,11.17-.03,15.65l15.29.14c.51,0,.91.46.9,1.01-.05,1.92-.19,5.69-.24,7.71-.02.64-.5,1.15-1.09,1.15l-14.79.07c0,4.42-.03,10.55-.04,15.16,0,.45-.33.8-.74.8h0Z"/></svg>