<?xml version="1.0" encoding="UTF-8"?><svg id="Lag_2" xmlns="http://www.w3.org/2000/svg" width="91" height="114" viewBox="0 0 91 114"><defs><style>.cls-1{fill:#003f5b;}.cls-2{fill:none;stroke:#003f5b;stroke-miterlimit:10;stroke-width:4px;}</style></defs><path class="cls-2" d="M45.56,3.8s95.5,105.16,0,105.43"/><path class="cls-2" d="M46,4s-95.5,104.96,0,105.23"/><path class="cls-1" d="M67.73,82.62c-.47-2.04-1.92-3.75-3.29-5.26-1.43-1.57-2.9-2.99-3.87-4.92-1.15-2.3-1.65-4.87-2.56-7.27-.9-2.37-2.12-4.37-3.88-6.21-1.65-1.73-3.53-3.22-5.3-4.82-1.6-1.45-3.07-3.07-4.87-4.29-2.12-1.43-4.22-.99-6.21.4-2.11,1.48-4.39,2.8-6.59,4.16-1.65,1.03-3.6,1.8-4.96,3.24-.31.33-.54.68-.71,1.04-.29.23-.52.55-.66.99-.48,1.57-1.28,2.97-2,4.44-.76,1.53-1.29,3.11-1.82,4.72-1.15,3.46-2.63,6.79-3.72,10.27-1.06,3.41-1.94,6.89-3.25,10.22-1.37,3.49-2.09,6.93-2.13,10.69-.03,2.57,3.97,2.58,4,0,.02-1.71.13-3.41.49-5.09.37-1.73,1.03-3.32,1.66-4.97.33-.88.64-1.76.92-2.65.03.01.05.03.08.04-.04-.02-.05-.02.02.01.1.05.19.09.29.13.18.08.36.17.53.26.37.19.74.39,1.1.6.81.46,1.6.94,2.41,1.39,1.56.87,3.17,1.6,4.92,1.89.04.12.05.23.1.35.42,1.11,1.07,2.1,1.6,3.16.7,1.37,1.25,2.8,1.77,4.25,1.05,2.88,2.02,5.79,3.49,8.48,1.23,2.26,4.69.24,3.45-2.02-2.36-4.33-3.34-9.26-5.72-13.59-.35-.63-.82-1.28-.95-2.01-.17-.9.24-1.86.52-2.69.79-2.35,1.66-4.65,2.33-7.04.61-2.2,1.51-4.65.99-6.95-.4-1.78-1.61-3.31-2.56-4.83-1.52-2.43-3.38-4.99-4.14-7.78-.01-.04-.08-.32-.12-.48,0,0,0-.02,0-.06.05-.04.12-.1.18-.17-.05.02-.13.03-.19.03,0-.02,0-.03,0-.05,0,0,0,0,.01,0,0,0,0,0-.01,0,0-.05,0-.09,0-.09.16.03.22.05.22.07.06-.06.11-.11.14-.14.39-.31.84-.56,1.27-.82,1.8-1.07,3.57-2.15,5.35-3.27.92-.58,1.89-1.07,2.79-1.66.57-.37,1.6-1.47,2.31-1.45.57.02,1.34.85,1.75,1.2.76.67,1.48,1.38,2.21,2.08,3.04,2.89,6.94,5.35,8.69,9.3.96,2.16,1.45,4.5,2.29,6.7.24.62.5,1.21.79,1.79-.11.07-.22.15-.32.24-.17.15-.34.3-.51.44-.08.07-.17.15-.26.21-.38.28-.77.55-1.16.81-.78.51-1.59.99-2.4,1.46-1.7.99-3.37,2-4.87,3.28-.8.68-.75,2.14,0,2.83.85.78,1.97.72,2.83,0,.09-.08.19-.16.28-.23,0,0,.03-.02.05-.04.06-.05.16-.12.18-.14.08-.06.16-.12.24-.17.38-.27.78-.53,1.17-.78.79-.5,1.59-.96,2.4-1.43,1.58-.92,3.12-1.91,4.51-3.1.15.18.28.37.43.54,1.34,1.52,2.96,2.9,3.95,4.69,1.04,1.89.11,4.44-.3,6.41-1.17,5.7-2.78,11.37-2.63,17.24.06,2.57,4.06,2.58,4,0-.14-5.52,1.39-10.82,2.49-16.18.48-2.34,1.28-5.07.72-7.45ZM30.03,70.96c.98,1.56,2.32,3.02,1.97,4.96-.51,2.87-1.47,5.73-2.47,8.46-.38,1.05-.81,2.14-1.11,3.26-.07-.02-.13-.03-.2-.05-.19-.06-.38-.12-.56-.19-.08-.03-.16-.06-.24-.09-.32-.23-.78-.36-1.13-.54-.41-.21-.82-.44-1.22-.67-1.59-.91-3.13-1.85-4.83-2.54-.03-.01-.05-.01-.08-.02.37-1.27.74-2.53,1.14-3.79,1.07-3.4,2.53-6.66,3.65-10.05.49-1.49,1.01-2.89,1.72-4.29.01-.02.02-.04.03-.07.28.53.56,1.03.82,1.48.79,1.41,1.65,2.77,2.5,4.14Z"/><path class="cls-1" d="M29.33,60.24s-.02.02-.04.04c.03-.01.04-.02.04-.04Z"/></svg>