<?xml version="1.0" encoding="UTF-8"?>
<svg id="Layer_1" xmlns="http://www.w3.org/2000/svg" version="1.1" viewBox="0 0 1920 833.2">
  <!-- Generator: Adobe Illustrator 29.4.0, SVG Export Plug-In . SVG Version: 2.1.0 Build 152)  -->
  <defs>
    <style>
      .st0 {
        fill: #bfdbe8;
      }
    </style>
  </defs>
  <path class="st0" d="M1920,331H0V60.2c100.9,0,204.2,31.2,305,31.2s223.1-31.2,335.8-31.2,216.7,53.5,323.3,53.5,234.1-53.5,353-53.5,232.3,25.7,342.7,25.7,169.6-25.7,260.1-25.7v270.8h0Z"/>
  <path class="st0" d="M1920,764.9c-87.5,0-173,40.3-260.5,40.3s-236.6-40.3-353.8-40.3-199.1,54.9-301.5,54.9-219.3-54.9-326-54.9-271.2,48.8-392.6,48.8S108.9,784,0,764.9v-378.2h1920v378.2h0Z"/>
  <rect class="st0" y="298.7" width="1920" height="117.9"/>
</svg>