<?xml version="1.0" encoding="UTF-8"?>
<svg id="Layer_1" data-name="Layer 1" xmlns="http://www.w3.org/2000/svg" viewBox="0 0 1920 1080">
  <defs>
    <style>
      .cls-1 {
        fill: #92b4ea;
      }
    </style>
  </defs>
  <path class="cls-1" d="M1920,451.03H0V180.2c100.88,0,204.17,31.23,305.05,31.23,112.74,0,223.09-31.23,335.83-31.23,106.58,0,216.71,53.52,323.29,53.52,118.84,0,234.13-53.52,352.98-53.52,110.41,0,232.32,25.66,342.73,25.66,90.54,0,169.58-25.66,260.12-25.66v270.84Z"/>
  <path class="cls-1" d="M1920,790.88c-87.52,0-172.96,40.26-260.49,40.26-117.24,0-236.55-40.26-353.79-40.26-102.45,0-199.1,54.92-301.55,54.92s-219.26-54.92-325.99-54.92c-121.4,0-271.24,48.85-392.65,48.85-104.66,0-176.67-29.76-285.54-48.85v-378.22h1920v378.22Z"/>
</svg>